<svg xmlns="http://www.w3.org/2000/svg" version="1.1" xmlns:xlink="http://www.w3.org/1999/xlink" xmlns:svgjs="http://svgjs.com/svgjs" width="512" height="512" x="0" y="0" viewBox="0 0 60 60" style="enable-background:new 0 0 512 512" xml:space="preserve" class=""><g><g xmlns="http://www.w3.org/2000/svg" id="Icons"><g fill="#e64c3c"><path d="m49 48h-8a1 1 0 0 0 0 2h3v9a1 1 0 0 0 2 0v-9h3a1 1 0 0 0 0-2z" fill="#e64c3c" data-original="#e64c3c"></path><path d="m35 53c-1.084 0-2-.687-2-1.5s.916-1.5 2-1.5a2.156 2.156 0 0 1 1.777.82 1 1 0 0 0 1.643-1.14 4.121 4.121 0 0 0 -3.42-1.68 3.779 3.779 0 0 0 -4 3.5 3.779 3.779 0 0 0 4 3.5c1.084 0 2 .687 2 1.5s-.916 1.5-2 1.5a2.156 2.156 0 0 1 -1.777-.82 1 1 0 0 0 -1.643 1.14 4.121 4.121 0 0 0 3.42 1.68 3.531 3.531 0 1 0 0-7z" fill="#e64c3c" data-original="#e64c3c"></path><path d="m18 50a1 1 0 0 0 0-2h-5a2 2 0 0 0 -2 2v8a2 2 0 0 0 2 2h5a1 1 0 0 0 0-2h-5v-3h4a1 1 0 0 0 0-2h-4v-3z" fill="#e64c3c" data-original="#e64c3c"></path><path d="m25.929 48.629a1.089 1.089 0 0 0 -.057-.119 1 1 0 0 0 -.456-.419 1.079 1.079 0 0 0 -.112-.043.992.992 0 0 0 -.563-.013 1.1 1.1 0 0 0 -.214.085 1 1 0 0 0 -.452.5l-4 10a1 1 0 1 0 1.858.742l.944-2.362h4.246l.948 2.371a1 1 0 1 0 1.858-.742zm-2.252 6.371 1.323-3.308 1.323 3.308z" fill="#e64c3c" data-original="#e64c3c"></path></g><path d="m9 22h21l-9.84-9.84-5.01-5.01a20.934 20.934 0 0 0 -6.15 14.85z" fill="#f5efca" data-original="#f5efca"></path><path d="m44.85 36.85a20.934 20.934 0 0 0 6.15-14.85h-21z" fill="#f5efca" data-original="#f5efca"></path><path d="m30 22h21a20.934 20.934 0 0 0 -6.15-14.85z" fill="#f3d55b" data-original="#f3d55b"></path><path d="m30 22 14.85-14.85a20.934 20.934 0 0 0 -14.85-6.15z" fill="#f5efca" data-original="#f5efca"></path><path d="m30 22v-21a20.934 20.934 0 0 0 -14.85 6.15l5.01 5.01z" fill="#f3d55b" data-original="#f3d55b"></path><path d="m30 43v-21l-9.84 9.84-5.01 5.01a20.934 20.934 0 0 0 14.85 6.15z" fill="#f5efca" data-original="#f5efca"></path><path d="m20.16 31.84 9.84-9.84h-21a20.934 20.934 0 0 0 6.15 14.85z" fill="#f3d55b" data-original="#f3d55b"></path><path d="m30 43a20.934 20.934 0 0 0 14.85-6.15l-14.85-14.85z" fill="#f3d55b" data-original="#f3d55b"></path><path d="m17.989 30.825 3.823-8.411a1 1 0 0 0 0-.828l-3.823-8.411a1 1 0 0 1 1.254-1.352l25.2 9.238a1 1 0 0 1 0 1.878l-25.2 9.238a1 1 0 0 1 -1.254-1.352z" fill="#e64c3c" data-original="#e64c3c"></path></g></g></svg>