<svg xmlns="http://www.w3.org/2000/svg" version="1.1" xmlns:xlink="http://www.w3.org/1999/xlink" xmlns:svgjs="http://svgjs.com/svgjs" width="512" height="512" x="0" y="0" viewBox="0 0 512 512" style="enable-background:new 0 0 512 512" xml:space="preserve"><g><g xmlns="http://www.w3.org/2000/svg"><circle cx="256" cy="256" fill="#f9cd16" r="256" data-original="#f9cd16"></circle><path d="m255.999 60-74.281 216.735 64.353 64.353-75.617 75.617 95.1 95.1c118.513-4.35 216.443-89.248 240.673-201.578z" fill="#ffaa00" data-original="#ffaa00"></path><path d="m147.654 276.692c-40.271 80.543 18.297 175.308 108.346 175.308l53.562-196-53.562-196z" fill="#92ccf7" data-original="#92ccf7"></path><path d="m364.346 276.692-108.346-216.692v392c90.049 0 148.617-94.765 108.346-175.308z" fill="#6cb1f8" data-original="#6cb1f8"></path><path d="m214.86 210.88c-20.357 0-36.919 18.519-36.919 41.281s16.562 41.281 36.919 41.281 36.919-18.519 36.919-41.281-16.562-41.281-36.919-41.281zm0 62.562c-9.329 0-16.919-9.547-16.919-21.281s7.59-21.281 16.919-21.281 16.919 9.547 16.919 21.281-7.59 21.281-16.919 21.281z" fill="#ffffff" data-original="#ffffff"></path><path d="m297.14 310.133c-20.357 0-36.919 18.519-36.919 41.281s16.562 41.281 36.919 41.281 36.919-18.519 36.919-41.281-16.562-41.281-36.919-41.281zm0 62.562c-9.329 0-16.919-9.547-16.919-21.281s7.59-21.281 16.919-21.281 16.919 9.547 16.919 21.281-7.59 21.281-16.919 21.281z" fill="#e9edf5" data-original="#e9edf5"></path><path d="m213.433 378.164 18.442 7.739 24.125-57.486 6.294-34.975-6.294-16.707z" fill="#ffffff" data-original="#ffffff"></path><path d="m282.095 214.556-26.095 62.179v51.682l44.537-106.122z" fill="#e9edf5" data-original="#e9edf5"></path></g></g></svg>