<svg xmlns="http://www.w3.org/2000/svg" version="1.1" xmlns:xlink="http://www.w3.org/1999/xlink" xmlns:svgjs="http://svgjs.com/svgjs" width="512" height="512" x="0" y="0" viewBox="0 0 60 60" style="enable-background:new 0 0 512 512" xml:space="preserve" class=""><g><g xmlns="http://www.w3.org/2000/svg" id="Icons"><g fill="#e64c3c"><path d="m21 48a4 4 0 0 0 -4 4v4a4 4 0 0 0 8 0v-4a4 4 0 0 0 -4-4zm2 8a2 2 0 0 1 -4 0v-4a2 2 0 0 1 4 0z" fill="#e64c3c" data-original="#e64c3c"></path><path d="m51 48a1 1 0 0 0 -1 1v4h-4v-4a1 1 0 0 0 -2 0v10a1 1 0 0 0 2 0v-4h4v4a1 1 0 0 0 2 0v-10a1 1 0 0 0 -1-1z" fill="#e64c3c" data-original="#e64c3c"></path><path d="m42 48h-6a1 1 0 0 0 0 2h2v9a1 1 0 0 0 2 0v-9h2a1 1 0 0 0 0-2z" fill="#e64c3c" data-original="#e64c3c"></path><path d="m15 48a1 1 0 0 0 -1 1v6.39l-4.143-6.905a1 1 0 0 0 -1.857.515v10a1 1 0 0 0 2 0v-6.39l4.143 6.905a1 1 0 0 0 .857.485 1.027 1.027 0 0 0 .267-.036 1 1 0 0 0 .733-.964v-10a1 1 0 0 0 -1-1z" fill="#e64c3c" data-original="#e64c3c"></path><path d="m34 51.5a3.5 3.5 0 0 0 -3.5-3.5h-2.5a2 2 0 0 0 -2 2v9a1 1 0 0 0 2 0v-4h1.807a4.084 4.084 0 0 1 2.193 4 1 1 0 0 0 2 0 6.4 6.4 0 0 0 -1.639-4.547 3.493 3.493 0 0 0 1.639-2.953zm-6-1.5h2.5a1.5 1.5 0 0 1 0 3h-2.5z" fill="#e64c3c" data-original="#e64c3c"></path></g><path d="m30 43v-21l-9.84 9.84-5.01 5.01a20.934 20.934 0 0 0 14.85 6.15z" fill="#f5efca" data-original="#f5efca"></path><path d="m44.85 7.15a20.934 20.934 0 0 0 -14.85-6.15v21z" fill="#f5efca" data-original="#f5efca"></path><path d="m30 22v-21a20.934 20.934 0 0 0 -14.85 6.15z" fill="#f3d55b" data-original="#f3d55b"></path><path d="m30 22-14.85-14.85a20.934 20.934 0 0 0 -6.15 14.85z" fill="#f5efca" data-original="#f5efca"></path><path d="m30 22h-21a20.934 20.934 0 0 0 6.15 14.85l5.01-5.01z" fill="#f3d55b" data-original="#f3d55b"></path><path d="m51 22h-21l9.84 9.84 5.01 5.01a20.934 20.934 0 0 0 6.15-14.85z" fill="#f5efca" data-original="#f5efca"></path><path d="m39.84 31.84-9.84-9.84v21a20.934 20.934 0 0 0 14.85-6.15z" fill="#f3d55b" data-original="#f3d55b"></path><path d="m51 22a20.934 20.934 0 0 0 -6.15-14.85l-14.85 14.85z" fill="#f3d55b" data-original="#f3d55b"></path><path d="m38.825 34.011-8.411-3.823a1 1 0 0 0 -.828 0l-8.411 3.823a1 1 0 0 1 -1.352-1.254l9.238-25.2a1 1 0 0 1 1.878 0l9.238 25.2a1 1 0 0 1 -1.352 1.254z" fill="#e64c3c" data-original="#e64c3c"></path></g></g></svg>