<svg xmlns="http://www.w3.org/2000/svg" version="1.1" xmlns:xlink="http://www.w3.org/1999/xlink" xmlns:svgjs="http://svgjs.com/svgjs" width="512" height="512" x="0" y="0" viewBox="0 0 60 60" style="enable-background:new 0 0 512 512" xml:space="preserve" class=""><g><g xmlns="http://www.w3.org/2000/svg" id="Icons"><g fill="#e64c3c"><path d="m10 48a1 1 0 0 0 -1 1v6.39l-4.143-6.905a1 1 0 0 0 -1.857.515v10a1 1 0 0 0 2 0v-6.39l4.143 6.905a1 1 0 0 0 .857.485 1.016 1.016 0 0 0 .267-.036 1 1 0 0 0 .733-.964v-10a1 1 0 0 0 -1-1z" fill="#e64c3c" data-original="#e64c3c"></path><path d="m56 48h-8a1 1 0 0 0 0 2h3v9a1 1 0 0 0 2 0v-9h3a1 1 0 0 0 0-2z" fill="#e64c3c" data-original="#e64c3c"></path><path d="m42 53c-1.084 0-2-.687-2-1.5s.916-1.5 2-1.5a2.156 2.156 0 0 1 1.777.82 1 1 0 0 0 1.643-1.14 4.119 4.119 0 0 0 -3.42-1.68 3.779 3.779 0 0 0 -4 3.5 3.779 3.779 0 0 0 4 3.5c1.084 0 2 .687 2 1.5s-.916 1.5-2 1.5a2.156 2.156 0 0 1 -1.777-.82 1 1 0 0 0 -1.643 1.14 4.119 4.119 0 0 0 3.42 1.68 3.531 3.531 0 1 0 0-7z" fill="#e64c3c" data-original="#e64c3c"></path><path d="m25 50a1 1 0 0 0 0-2h-5a2 2 0 0 0 -2 2v8a2 2 0 0 0 2 2h5a1 1 0 0 0 0-2h-5v-3h4a1 1 0 0 0 0-2h-4v-3z" fill="#e64c3c" data-original="#e64c3c"></path><path d="m32.929 48.629a.936.936 0 0 0 -.058-.119 1 1 0 0 0 -.568-.462.975.975 0 0 0 -.563-.013 1.073 1.073 0 0 0 -.214.085.994.994 0 0 0 -.452.5l-4 10a.984.984 0 0 0 -.074.38 1 1 0 0 0 1.929.372l.948-2.372h4.246l.948 2.371a1 1 0 0 0 .929.629.986.986 0 0 0 .371-.071 1 1 0 0 0 .558-1.3zm-2.252 6.371 1.323-3.308 1.323 3.308z" fill="#e64c3c" data-original="#e64c3c"></path></g><path d="m15.151 36.849 14.849-14.849h-21a20.934 20.934 0 0 0 6.151 14.849z" fill="#f5efca" data-original="#f5efca"></path><path d="m51 22a20.93 20.93 0 0 0 -6.151-14.849l-14.849 14.849z" fill="#f5efca" data-original="#f5efca"></path><path d="m30 22 14.849-14.849a20.93 20.93 0 0 0 -14.849-6.151z" fill="#f3d55b" data-original="#f3d55b"></path><path d="m30 22v-21a20.93 20.93 0 0 0 -14.849 6.151z" fill="#f5efca" data-original="#f5efca"></path><path d="m30 22-14.849-14.849a20.934 20.934 0 0 0 -6.151 14.849z" fill="#f3d55b" data-original="#f3d55b"></path><path d="m44.849 36.849-14.849-14.849v21a20.934 20.934 0 0 0 14.849-6.151z" fill="#f5efca" data-original="#f5efca"></path><path d="m30 35.916v-13.916l-14.849 14.849a20.934 20.934 0 0 0 14.849 6.151z" fill="#f3d55b" data-original="#f3d55b"></path><path d="m44.849 36.849a20.93 20.93 0 0 0 6.151-14.849h-21z" fill="#f3d55b" data-original="#f3d55b"></path><path d="m27.747 36.733-3.247-8.651a1 1 0 0 0 -.585-.585l-8.651-3.244a1 1 0 0 1 -.07-1.843l24.352-11.284a1 1 0 0 1 1.328 1.328l-11.283 24.346a1 1 0 0 1 -1.844-.067z" fill="#e64c3c" data-original="#e64c3c"></path></g></g></svg>