<svg xmlns="http://www.w3.org/2000/svg" version="1.1" xmlns:xlink="http://www.w3.org/1999/xlink" xmlns:svgjs="http://svgjs.com/svgjs" width="512" height="512" x="0" y="0" viewBox="0 0 175 175" style="enable-background:new 0 0 512 512" xml:space="preserve" class=""><g><g xmlns="http://www.w3.org/2000/svg" id="Layer_2" data-name="Layer 2"><g id="Filled"><g id="_46.Think-Face" data-name="46.Think-Face"><circle id="Background" cx="87.5" cy="87.5" fill="#ffdd67" r="87.5" data-original="#ffdd67" class=""></circle><path id="Hand" d="m78.67 145.25-1-4.94 12.68-2.58a7 7 0 0 0 4.54-3.32 7.68 7.68 0 0 0 1-5.46 1.25 1.25 0 0 1 0-.24 7.42 7.42 0 0 0 -3.17-4.45 7.16 7.16 0 0 0 -5.38-1.08l-35.62 7.25a2 2 0 0 1 -1.62-.32 2.25 2.25 0 0 1 -.89-1.34 2.14 2.14 0 0 1 .08-1.12l3.05-8.58v-.08a8.5 8.5 0 0 0 -9.89-10.53 8.49 8.49 0 0 0 -5.63 4l-8.3 14.1a34.81 34.81 0 0 0 -4.1 24.61 29.7 29.7 0 0 0 35 23.2 24.69 24.69 0 0 0 19.29-29.1z" fill="#eceff1" data-original="#eceff1"></path><g id="Face" fill="#b26d3c"><path d="m122.89 130.22a6.1 6.1 0 0 1 -2.47.53 5.92 5.92 0 0 1 -4.82-2.46c-3-4.11-8.62-10.14-17.44-12.31a28.41 28.41 0 0 0 -12-.29 6 6 0 0 1 -7.16-5.89 6 6 0 0 1 4.88-5.9 40.2 40.2 0 0 1 17.21.43c12.38 3 20.16 11.18 24.3 16.94a6 6 0 0 1 -2.5 8.95z" fill="#b26d3c" data-original="#b26d3c" class=""></path><g id="Eye_02" data-name="Eye 02"><rect height="12" rx="6" transform="matrix(.965 -.261 .261 .965 -5.74 31.77)" width="40.46" x="96.55" y="31.5" fill="#7c4807" data-original="#000000" class=""></rect><ellipse cx="116.5" cy="67.39" rx="11.5" ry="19.89" fill="#7c4807" data-original="#000000" class=""></ellipse></g><g id="Eye_01" data-name="Eye 01"><circle cx="58.5" cy="71.17" r="11.5" fill="#7c4807" data-original="#000000" class=""></circle><rect height="12" rx="6" transform="matrix(.999 -.049 .049 .999 -2.69 2.71)" width="40.46" x="33.99" y="50.5" fill="#7c4807" data-original="#000000" class=""></rect></g></g></g></g></g></g></svg>