<svg xmlns="http://www.w3.org/2000/svg" version="1.1" xmlns:xlink="http://www.w3.org/1999/xlink" xmlns:svgjs="http://svgjs.com/svgjs" width="512" height="512" x="0" y="0" viewBox="0 0 60 60" style="enable-background:new 0 0 512 512" xml:space="preserve" class=""><g><g xmlns="http://www.w3.org/2000/svg" id="Icons"><path d="m30 1v21l-9.84-9.84-5.01-5.01a20.934 20.934 0 0 1 14.85-6.15z" fill="#f5efca" data-original="#f5efca"></path><path d="m44.85 36.85a20.934 20.934 0 0 1 -14.85 6.15v-21z" fill="#f5efca" data-original="#f5efca"></path><path d="m30 22v21a20.934 20.934 0 0 1 -14.85-6.15z" fill="#f3d55b" data-original="#f3d55b"></path><path d="m30 22-14.85 14.85a20.934 20.934 0 0 1 -6.15-14.85z" fill="#f5efca" data-original="#f5efca"></path><path d="m30 22h-21a20.934 20.934 0 0 1 6.15-14.85l5.01 5.01z" fill="#f3d55b" data-original="#f3d55b"></path><path d="m51 22h-21l9.84-9.84 5.01-5.01a20.934 20.934 0 0 1 6.15 14.85z" fill="#f5efca" data-original="#f5efca"></path><path d="m39.84 12.16-9.84 9.84v-21a20.934 20.934 0 0 1 14.85 6.15z" fill="#f3d55b" data-original="#f3d55b"></path><path d="m51 22a20.934 20.934 0 0 1 -6.15 14.85l-14.85-14.85z" fill="#f3d55b" data-original="#f3d55b"></path><g fill="#e64c3c"><path d="m38.825 9.989-8.411 3.823a1 1 0 0 1 -.828 0l-8.411-3.823a1 1 0 0 0 -1.352 1.254l9.238 25.2a1 1 0 0 0 1.878 0l9.238-25.2a1 1 0 0 0 -1.352-1.254z" fill="#e64c3c" data-original="#e64c3c"></path><path d="m12 53c-1.084 0-2-.687-2-1.5s.916-1.5 2-1.5a2.156 2.156 0 0 1 1.777.82 1 1 0 0 0 1.643-1.14 4.121 4.121 0 0 0 -3.42-1.68 3.779 3.779 0 0 0 -4 3.5 3.779 3.779 0 0 0 4 3.5c1.084 0 2 .687 2 1.5s-.916 1.5-2 1.5a2.156 2.156 0 0 1 -1.777-.82 1 1 0 0 0 -1.643 1.14 4.121 4.121 0 0 0 3.42 1.68 3.531 3.531 0 1 0 0-7z" fill="#e64c3c" data-original="#e64c3c"></path><path d="m21 48a4 4 0 0 0 -4 4v4a4 4 0 0 0 8 0v-4a4 4 0 0 0 -4-4zm2 8a2 2 0 0 1 -4 0v-4a2 2 0 0 1 4 0z" fill="#e64c3c" data-original="#e64c3c"></path><path d="m33 48a1 1 0 0 0 -1 1v7a2 2 0 0 1 -4 0v-7a1 1 0 0 0 -2 0v7a4 4 0 0 0 8 0v-7a1 1 0 0 0 -1-1z" fill="#e64c3c" data-original="#e64c3c"></path><path d="m51 48a1 1 0 0 0 -1 1v4h-4v-4a1 1 0 0 0 -2 0v10a1 1 0 0 0 2 0v-4h4v4a1 1 0 0 0 2 0v-10a1 1 0 0 0 -1-1z" fill="#e64c3c" data-original="#e64c3c"></path><path d="m42 48h-6a1 1 0 0 0 0 2h2v9a1 1 0 0 0 2 0v-9h2a1 1 0 0 0 0-2z" fill="#e64c3c" data-original="#e64c3c"></path></g></g></g></svg>