<svg xmlns="http://www.w3.org/2000/svg" version="1.1" xmlns:xlink="http://www.w3.org/1999/xlink" xmlns:svgjs="http://svgjs.com/svgjs" width="512" height="512" x="0" y="0" viewBox="0 0 58 58" style="enable-background:new 0 0 512 512" xml:space="preserve" class=""><g><g xmlns="http://www.w3.org/2000/svg" id="Page-1" fill="none" fill-rule="evenodd"><g id="048---Global-Weather-Search" fill-rule="nonzero"><path id="Rectangle-path" d="m38.931 38.485h3.988v4.879h-3.988z" fill="#f49a00" transform="matrix(.707 -.707 .707 .707 -16.952 40.925)" data-original="#f49a00"></path><circle id="Oval" cx="23" cy="23" fill="#f1c200" r="23" data-original="#f1c200"></circle><circle id="Oval" cx="23" cy="23" fill="#f49a00" r="21" data-original="#f49a00"></circle><circle id="Oval" cx="23" cy="23" fill="#add2f1" r="19" data-original="#add2f1"></circle><path id="Shape" d="m57.35 50.6-11.328-9.2c-.6994841-.5685047-1.7155206-.5162564-2.353.121l-2.154 2.154c-.6372564.6374794-.6895047 1.6535159-.121 2.353l9.206 11.322c.3139833.386577.7771216.6219374 1.2744796.6476727s.9823147-.1605669 1.3345204-.5126727l4.278-4.278c.3511917-.3524227.5367107-.8370865.5106011-1.3339322-.0261097-.4968457-.2614056-.9593954-.6476011-1.2730678z" fill="#a66a3d" data-original="#a66a3d"></path><path id="Shape" d="m29 13c-.0032948 1.1032019-.8967981 1.9967052-2 2h-.18c-.4196671 1.1980806-1.5505443 2.0002024-2.82 2.0002024s-2.4003329-.8021218-2.82-2.0002024h-1.18c-1.1045695 0-2-.8954305-2-2s.8954305-2 2-2c0-1.65685425 1.3431458-3 3-3s3 1.34314575 3 3c.0033047.0937789-.0033999.1876429-.02.28.3082584-.1842425.6608796-.2810404 1.02-.28 1.1032019.0032948 1.9967052.8967981 2 2z" fill="#ebeff0" data-original="#ebeff0"></path><g fill="#3197d6"><path id="Shape" d="m18 21c-.5522847 0-1-.4477153-1-1v-1c0-.5522847.4477153-1 1-1s1 .4477153 1 1v1c0 .5522847-.4477153 1-1 1z" fill="#3197d6" data-original="#3197d6"></path><path id="Shape" d="m28 22c-.5522847 0-1-.4477153-1-1v-1c0-.5522847.4477153-1 1-1s1 .4477153 1 1v1c0 .5522847-.4477153 1-1 1z" fill="#3197d6" data-original="#3197d6"></path><path id="Shape" d="m23 23c-.5522847 0-1-.4477153-1-1v-1c0-.5522847.4477153-1 1-1s1 .4477153 1 1v1c0 .5522847-.4477153 1-1 1z" fill="#3197d6" data-original="#3197d6"></path></g><path id="Shape" d="m48.32 43.26-5.06 5.06-1.87-2.3c-.5628904-.7016736-.5068509-1.7146951.13-2.35l2.15-2.15c.6353049-.6368509 1.6483264-.6928904 2.35-.13z" fill="#f1c200" data-original="#f1c200"></path><path id="Shape" d="m38.72 33.66c-1.8884947 2.781628-4.4795592 5.0138767-7.51 6.47-.1119777-.5631396-.1689125-1.1358362-.17-1.71-.1659066-3.4102479 1.9412018-6.519965 5.17-7.63h.01c.932421.8656249 1.7704381 1.8276685 2.5 2.87z" fill="#5ddcb6" data-original="#5ddcb6"></path><path id="Shape" d="m22.13 37.4-3.4 1.36c-.9756767.3939839-1.7679283 1.1398423-2.22 2.09-3.1797476-1.1526602-5.9935472-3.1344037-8.15-5.74 2.2248523-3.9290827 5.8491907-6.8749735 10.15-8.25.6270071.8123549 1.0427508 1.7675347 1.21 2.78.1890976.9644596.8916655 1.74765 1.83 2.04l.26.09c.9672061.2985125 1.7330368 1.0420374 2.06 2 .4566092 1.4787014-.3012755 3.0598057-1.74 3.63z" fill="#5ddcb6" data-original="#5ddcb6"></path><path id="Shape" d="m31.04 38.42c.0010875.5741638.0580223 1.1468604.17 1.71-2.5609543 1.2335592-5.36744 1.8727953-8.21 1.87-2.2145123.0057152-4.4122819-.3837201-6.49-1.15.4520717-.9501577 1.2443233-1.6960161 2.22-2.09l3.4-1.36c1.4387245-.5701943 2.1966092-2.1512986 1.74-3.63-.3269632-.9579626-1.0927939-1.7014875-2.06-2l-.26-.09c-.9383345-.29235-1.6409024-1.0755404-1.83-2.04-.1672492-1.0124653-.5829929-1.9676451-1.21-2.78 6.1767339-1.9836659 12.943163-.4812893 17.7 3.93-3.2287982 1.110035-5.3359066 4.2197521-5.17 7.63z" fill="#1ea7ce" data-original="#1ea7ce"></path></g></g></g></svg>