<svg xmlns="http://www.w3.org/2000/svg" version="1.1" xmlns:xlink="http://www.w3.org/1999/xlink" xmlns:svgjs="http://svgjs.com/svgjs" width="512" height="512" x="0" y="0" viewBox="0 0 58 58" style="enable-background:new 0 0 512 512" xml:space="preserve"><g><g xmlns="http://www.w3.org/2000/svg" id="Page-1" fill="none" fill-rule="evenodd"><g id="026---Umbrella" fill-rule="nonzero"><path id="Shape" d="m29 10c-.5522847 0-1-.44771525-1-1v-4c0-.55228475.4477153-1 1-1s1 .44771525 1 1v4c0 .55228475-.4477153 1-1 1z" fill="#95a5a5" data-original="#95a5a5"></path><path id="Shape" d="m38 42s1.667-4 10-4 10 4 10 4c0-37-29-35-29-35s-29-2-29 35c0 0 1.666-4 10-4s10 4 10 4 1.5-4 9-4 9 4 9 4z" fill="#e64c3c" data-original="#e64c3c"></path><path id="Shape" d="m31 35v16c0 3.8659932-3.1340068 7-7 7s-7-3.1340068-7-7v-2c0-1.1045695.8954305-2 2-2s2 .8954305 2 2v2c0 1.6568542 1.3431458 2.9999999 3 2.9999999s3-1.3431457 3-2.9999999v-16z" fill="#95a5a5" data-original="#95a5a5"></path><path id="Shape" d="m37.97 41.93c-.24-.53-2.06-3.93-8.97-3.93-7.5 0-9 4-9 4-.0900429-3.227056.0201687-6.4565902.33-9.67.495246-5.6369384 1.7638108-11.1789181 3.77-16.47 1.2071435-3.1615141 2.8532921-6.13737384 4.89-8.84 3.2286998 4.4479796 5.5526554 9.4866145 6.84 14.83 1.2778107 4.9843365 1.9922808 10.09632 2.13 15.24.04 1.28.07 3.53.01 4.84z" fill="#ecf0f1" data-original="#ecf0f1"></path><path id="Shape" d="m24 22c-.5522847 0-1-.4477153-1-1s-.4477153-1-1-1-1 .4477153-1 1-.4477153 1-1 1-1-.4477153-1-1c0-1.6568542 1.3431458-3 3-3s3 1.3431458 3 3c0 .5522847-.4477153 1-1 1z" fill="#35495e" data-original="#35495e"></path><path id="Shape" d="m38 22c-.5522847 0-1-.4477153-1-1s-.4477153-1-1-1-1 .4477153-1 1-.4477153 1-1 1-1-.4477153-1-1c0-1.6568542 1.3431458-3 3-3s3 1.3431458 3 3c0 .5522847-.4477153 1-1 1z" fill="#35495e" data-original="#35495e"></path><g fill="#2fa8cc"><path id="Shape" d="m5 11c0 1.1045695-.8954305 2-2 2s-2-.8954305-2-2c0-1.1 2-4 2-4s2 2.9 2 4z" fill="#2fa8cc" data-original="#2fa8cc"></path><path id="Shape" d="m13 4c0 1.1045695-.8954305 2-2 2s-2-.8954305-2-2c0-1.1 2-4 2-4s2 2.9 2 4z" fill="#2fa8cc" data-original="#2fa8cc"></path><path id="Shape" d="m53 11c0 1.1045695.8954305 2 2 2s2-.8954305 2-2c0-1.105-2-4-2-4s-2 2.9-2 4z" fill="#2fa8cc" data-original="#2fa8cc"></path><path id="Shape" d="m45 4c0 1.1045695.8954305 2 2 2s2-.8954305 2-2c0-1.1-2-4-2-4s-2 2.9-2 4z" fill="#2fa8cc" data-original="#2fa8cc"></path></g><path id="Shape" d="m26 24h6v1c0 1.6568542-1.3431458 3-3 3s-3-1.3431458-3-3z" fill="#802d40" data-original="#802d40"></path></g></g></g></svg>