<svg xmlns="http://www.w3.org/2000/svg" version="1.1" xmlns:xlink="http://www.w3.org/1999/xlink" xmlns:svgjs="http://svgjs.com/svgjs" width="512" height="512" x="0" y="0" viewBox="0 0 60 60" style="enable-background:new 0 0 512 512" xml:space="preserve" class=""><g><g xmlns="http://www.w3.org/2000/svg" id="Icons"><g fill="#e64c3c"><path d="m49 48h-8a1 1 0 0 0 0 2h3v9a1 1 0 0 0 2 0v-9h3a1 1 0 0 0 0-2z" fill="#e64c3c" data-original="#e64c3c"></path><path d="m36 53c-1.084 0-2-.687-2-1.5s.916-1.5 2-1.5a2.156 2.156 0 0 1 1.777.82 1 1 0 0 0 1.643-1.14 4.119 4.119 0 0 0 -3.42-1.68 3.779 3.779 0 0 0 -4 3.5 3.779 3.779 0 0 0 4 3.5c1.084 0 2 .687 2 1.5s-.916 1.5-2 1.5a2.156 2.156 0 0 1 -1.777-.82 1 1 0 0 0 -1.643 1.14 4.119 4.119 0 0 0 3.42 1.68 3.531 3.531 0 1 0 0-7z" fill="#e64c3c" data-original="#e64c3c"></path><path d="m30 50a1 1 0 0 0 0-2h-5a2 2 0 0 0 -2 2v8a2 2 0 0 0 2 2h5a1 1 0 0 0 0-2h-5v-3h4a1 1 0 0 0 0-2h-4v-3z" fill="#e64c3c" data-original="#e64c3c"></path><path d="m21.2 48.02a1 1 0 0 0 -1.176.784l-1.429 7.142-1.7-3.393a1.042 1.042 0 0 0 -1.79 0l-1.7 3.393-1.425-7.146a1 1 0 0 0 -1.96.392l2 10a1 1 0 0 0 1.875.251l2.105-4.207 2.105 4.211a1 1 0 0 0 1.875-.247l2-10a1 1 0 0 0 -.78-1.18z" fill="#e64c3c" data-original="#e64c3c"></path></g><path d="m51 22h-21l9.84-9.84 5.01-5.01a20.934 20.934 0 0 1 6.15 14.85z" fill="#f5efca" data-original="#f5efca"></path><path d="m15.15 36.85a20.934 20.934 0 0 1 -6.15-14.85h21z" fill="#f5efca" data-original="#f5efca"></path><path d="m30 22h-21a20.934 20.934 0 0 1 6.15-14.85z" fill="#f3d55b" data-original="#f3d55b"></path><path d="m30 22-14.85-14.85a20.934 20.934 0 0 1 14.85-6.15z" fill="#f5efca" data-original="#f5efca"></path><path d="m30 22v-21a20.934 20.934 0 0 1 14.85 6.15l-5.01 5.01z" fill="#f3d55b" data-original="#f3d55b"></path><path d="m30 43v-21l9.84 9.84 5.01 5.01a20.934 20.934 0 0 1 -14.85 6.15z" fill="#f5efca" data-original="#f5efca"></path><path d="m39.84 31.84-9.84-9.84h21a20.934 20.934 0 0 1 -6.15 14.85z" fill="#f3d55b" data-original="#f3d55b"></path><path d="m30 43a20.934 20.934 0 0 1 -14.85-6.15l14.85-14.85z" fill="#f3d55b" data-original="#f3d55b"></path><path d="m42.011 30.825-3.823-8.411a1 1 0 0 1 0-.828l3.823-8.411a1 1 0 0 0 -1.254-1.352l-25.2 9.238a1 1 0 0 0 0 1.878l25.2 9.238a1 1 0 0 0 1.254-1.352z" fill="#e64c3c" data-original="#e64c3c"></path></g></g></svg>